<svg id="Capa_1" enable-background="new 0 0 512 512" height="512" viewBox="0 0 512 512" width="512" xmlns="http://www.w3.org/2000/svg"><path d="m328.145 199.371c4.142 0 7.5-3.358 7.5-7.5v-40.597h56.629c4.142 0 7.5-3.358 7.5-7.5v-40.597h56.629c4.142 0 7.5-3.358 7.5-7.5v-48.096c0-4.142-3.358-7.5-7.5-7.5h-384.774c-4.142 0-7.5 3.358-7.5 7.5v40.597h-56.629c-4.142 0-7.5 3.358-7.5 7.5v48.097c0 4.142 3.358 7.5 7.5 7.5h56.629v40.597c0 4.142 3.358 7.5 7.5 7.5h56.629v40.597c0 4.142 3.358 7.5 7.5 7.5h128.258c4.142 0 7.5-3.358 7.5-7.5v-40.597h56.629zm56.629-63.097h-72.662c-4.142 0-7.5 3.358-7.5 7.5s3.358 7.5 7.5 7.5h8.532v33.097h-113.257v-33.097h72.661c4.142 0 7.5-3.358 7.5-7.5s-3.358-7.5-7.5-7.5h-8.532v-33.097h113.258zm-241.516-33.097h113.258v33.097h-113.258zm305.645-15h-113.258v-33.096h113.258zm-128.258 0h-113.258v-33.096h113.258zm-241.516-33.096h113.258v33.097h-113.258zm-64.129 48.096h113.258v33.097h-113.258zm64.129 48.097h113.258v33.097h-113.258zm177.387 81.194h-113.258v-33.097h113.258z"/><path d="m304.613 320.129c0 21.816 17.749 39.564 39.564 39.564s39.564-17.749 39.564-39.564-17.749-39.564-39.564-39.564-39.564 17.748-39.564 39.564zm64.129 0c0 13.545-11.02 24.564-24.564 24.564s-24.564-11.02-24.564-24.564 11.02-24.564 24.564-24.564 24.564 11.019 24.564 24.564z"/><path d="m504.5 424.855h-224.452c-4.142 0-7.5 3.358-7.5 7.5v32.064c0 4.142 3.358 7.5 7.5 7.5h32.063c4.142 0 7.5-3.358 7.5-7.5s-3.358-7.5-7.5-7.5h-24.563v-17.064h209.452v17.064h-152.823c-4.142 0-7.5 3.358-7.5 7.5s3.358 7.5 7.5 7.5h160.323c4.142 0 7.5-3.358 7.5-7.5v-32.064c0-4.142-3.358-7.5-7.5-7.5z"/></svg>