<?xml version="1.0" ?><svg id="Layer_1" style="enable-background:new 0 0 128 128;" version="1.1" viewBox="0 0 128 128" xml:space="preserve" xmlns="http://www.w3.org/2000/svg" xmlns:xlink="http://www.w3.org/1999/xlink"><style type="text/css">
	.st0{fill:none;stroke:#1D1952;stroke-width:4;stroke-linecap:round;stroke-miterlimit:10;}
	.st1{fill:#F73959;}
	.st2{opacity:0.5;fill:#C02344;}
	.st3{fill:none;stroke:#FFFFFF;stroke-width:4;stroke-linecap:round;stroke-linejoin:round;stroke-miterlimit:10;}
	.st4{fill:#F95F80;}
	.st5{fill:#FFFFFF;}
	.st6{fill:#1D1952;}
	.st7{fill:#EF8FA9;}
	.st8{fill:none;stroke:#AAAAE5;stroke-width:4;stroke-linecap:round;stroke-miterlimit:10;}
	.st9{fill:#AAAAE5;}
	.st10{fill:#FFCE00;}
	.st11{fill:#8E072B;}
	.st12{opacity:0.5;fill:#F73959;}
	.st13{fill:none;stroke:#C02344;stroke-width:4;stroke-linecap:round;stroke-linejoin:round;stroke-miterlimit:10;}
	.st14{fill:none;stroke:#FFAA00;stroke-width:4;stroke-linecap:round;stroke-linejoin:round;stroke-miterlimit:10;}
	.st15{fill:#FFAA00;}
	.st16{fill:none;stroke:#FFFFFF;stroke-width:3;stroke-linecap:round;stroke-linejoin:round;stroke-miterlimit:10;}
	.st17{fill:none;stroke:#1D1952;stroke-width:3;stroke-linecap:round;stroke-miterlimit:10;}
	.st18{fill:none;stroke:#C02344;stroke-width:6;stroke-linecap:round;stroke-linejoin:round;stroke-miterlimit:10;}
	.st19{fill:none;stroke:#AAAAE5;stroke-width:4;stroke-linecap:round;stroke-linejoin:round;stroke-miterlimit:10;}
	.st20{fill:#E87498;}
	.st21{fill:none;stroke:#1D1952;stroke-width:4;stroke-miterlimit:10;}
	.st22{fill:none;stroke:#FFAA00;stroke-width:4;stroke-linecap:round;stroke-miterlimit:10;}
	.st23{fill:#7A61F7;}
	.st24{fill:none;stroke:#FFCE00;stroke-width:4;stroke-linecap:round;stroke-miterlimit:10;}
</style><g><path class="st1" d="M95.8,23.9C72.3,18,61.4,34.7,61.4,34.7s-13.1-15.1-35.5-6.2C-2.5,39.7-3,78.2,23.5,99.7   c20.3,16.4,35.2,22.7,41.1,24.8c1.8,0.6,3.8,0.5,5.5-0.4c5.6-2.8,19.5-11,37.4-30C130.9,69.3,125.3,31.2,95.8,23.9z"/><path class="st2" d="M108.9,85C98,96.6,88.5,104.1,81.6,108.9c-7.8,5.4-17.9,6-26.4,1.8c-7.5-3.8-17.9-10.1-30.2-20.1   C11.5,79.8,5,64.6,5.5,50.8c-4.5,15.8,1.6,35.6,18,48.9c20.3,16.4,35.2,22.7,41.1,24.8c1.8,0.6,3.8,0.5,5.5-0.4   c5.6-2.8,19.5-11,37.4-30c9.1-9.7,13.9-21.4,14.5-32.5C119.8,69.8,115.5,78,108.9,85z"/><path class="st3" d="M36.8,33.9c0.4,0,0.8-0.1,1.2-0.1"/><path class="st3" d="M15.8,46.7c2.9-4.8,7.2-8.5,12.9-10.8"/><path class="st3" d="M68,39.1c0.2-0.2,5.4-7.7,16.3-8.4"/><circle class="st4" cx="36" cy="75.9" r="9"/><circle class="st4" cx="94.9" cy="71.9" r="9"/><path class="st0" d="M56.4,77.4c0,0,0.9,14.1,9.4,13.6s9.2-14.8,9.2-14.8"/><g><line class="st22" x1="103.1" x2="119.7" y1="37.2" y2="23.2"/><line class="st22" x1="9.8" x2="32.2" y1="114.2" y2="95.4"/><path class="st0" d="M100.6,32.2c0,0,0.7,5.3,6.6,7.7"/><path class="st0" d="M27.8,92.3c0,0,4.6,1.4,7,7.3"/><polyline class="st14" points="111,24 119.7,23.2 117.3,32.2   "/><polyline class="st22" points="15.1,116.1 15.7,109.2 9.4,108.3   "/><polyline class="st22" points="20.7,111.2 21.3,104.4 15,103.5   "/><polyline class="st22" points="26.3,106.4 26.9,99.6 20.6,98.7   "/></g><path class="st0" d="M74.9,54.5c3.6,1.2,9,6.5,9,6.5"/><path class="st0" d="M84.9,50c0,0-5.6,7.2-8,14.1"/><path class="st0" d="M44,57.5c3.6,1.2,9,6.5,9,6.5"/><path class="st0" d="M54,53.1c0,0-5.6,7.2-8,14.1"/><path class="st8" d="M46.6,6.7C46.4,6.8,46.2,6.9,46,7"/><path class="st8" d="M60.3,27.2c0,0,4.9-0.8,7.3-5.8c4-8.4-10.4-10.1-13.6-3.2c-1.7,3.6,7.6,4,11.8-4.9c3.4-7.1-5-9.9-13.6-8.3"/></g></svg>