<svg xmlns="http://www.w3.org/2000/svg" viewBox="0 0 3333.33 1312.76" shape-rendering="geometricPrecision" text-rendering="geometricPrecision" image-rendering="optimizeQuality" fill-rule="evenodd" clip-rule="evenodd"><path d="M277.22 0H3056.1c76.2 0 145.44 31.28 195.65 81.49 50.32 50.32 81.57 119.72 81.57 195.73v758.31c0 75.94-31.35 145.26-81.66 195.56-50.3 50.31-119.63 81.66-195.56 81.66H277.22c-76 0-145.41-31.25-195.73-81.57C31.28 1180.97 0 1111.73 0 1035.53V277.22C0 200.94 31.18 131.63 81.41 81.4 131.64 31.17 200.95-.01 277.23-.01zm623.27 640.89l96.8-6.42c2.08 16.57 6.38 29.25 12.83 37.86 10.53 14.06 25.51 21.13 45.02 21.13 14.52 0 25.74-3.58 33.57-10.81 7.91-7.23 11.83-15.6 11.83-25.11 0-9.02-3.69-17.15-11.14-24.3-7.46-7.15-24.82-13.81-52.09-20.23-44.72-10.56-76.52-24.7-95.58-42.33-19.2-17.55-28.81-39.98-28.81-67.28 0-17.87 4.92-34.78 14.75-50.7 9.83-16.01 24.58-28.52 44.33-37.62 19.74-9.1 46.79-13.65 81.13-13.65 42.18 0 74.29 8.29 96.42 24.95 22.13 16.57 35.26 42.98 39.49 79.22l-95.88 6.02c-2.54-15.85-7.91-27.39-16.06-34.54-8.22-7.23-19.52-10.81-33.88-10.81-11.83 0-20.82 2.68-26.81 7.96-5.99 5.28-8.99 11.78-8.99 19.42 0 5.53 2.46 10.48 7.3 14.95 4.69 4.63 16.06 8.86 34.04 12.84 44.56 10.16 76.44 20.47 95.65 30.87 19.28 10.41 33.34 23.24 42.1 38.68 8.76 15.35 13.13 32.58 13.13 51.68 0 22.34-5.83 42.98-17.52 61.92-11.75 18.85-28.04 33.23-49.09 42.98-20.97 9.75-47.41 14.63-79.36 14.63-56.08 0-94.96-11.45-116.55-34.29-21.58-22.83-33.8-51.84-36.65-87.02zm344.88 211.5V503.32h85.9v37.3c11.83-15.76 22.74-26.41 32.65-31.94 13.29-7.47 28.12-11.21 44.32-11.21 31.96 0 56.63 12.92 74.15 38.84 17.44 25.92 26.2 58.02 26.2 96.12 0 42.17-9.52 74.35-28.58 96.53-19.05 22.18-43.1 33.23-72.22 33.23-14.14 0-26.97-2.52-38.57-7.56-11.68-5.12-22.05-12.59-31.2-22.59v120.34h-92.65zm91.96-221.74c0 20.15 4 35.02 11.91 44.77s17.98 14.63 30.12 14.63c10.6 0 19.52-4.63 26.74-13.98 7.15-9.34 10.76-25.19 10.76-47.53 0-20.64-3.77-35.75-11.22-45.43-7.53-9.67-16.6-14.46-27.43-14.46-11.67 0-21.35 4.88-29.19 14.63-7.76 9.75-11.68 25.51-11.68 47.37zm298.94-45.42l-87.59-9.76c3.3-16.25 8.07-29 14.29-38.27 6.22-9.35 15.13-17.39 26.89-24.22 8.37-4.96 19.9-8.77 34.57-11.45 14.67-2.69 30.57-4.06 47.71-4.06 27.43 0 49.39 1.62 66.07 4.87 16.6 3.25 30.5 10.07 41.57 20.39 7.83 7.15 13.98 17.31 18.44 30.39 4.53 13.08 6.76 25.59 6.76 37.54v111.81c0 11.94.69 21.29 2.15 28.03 1.39 6.75 4.54 15.36 9.3 25.84h-85.82c-3.46-6.5-5.68-11.37-6.76-14.78-1-3.41-2.07-8.7-3.15-15.93-11.98 12.19-23.89 20.88-35.8 26.09-16.21 6.98-35.03 10.48-56.46 10.48-28.5 0-50.17-6.99-64.92-21.04-14.83-13.98-22.2-31.28-22.2-51.76 0-19.26 5.3-35.1 15.98-47.53s30.34-21.7 59-27.71c34.34-7.31 56.63-12.43 66.84-15.44 10.22-2.93 21.05-6.74 32.42-11.54 0-11.94-2.3-20.23-6.99-25.02-4.61-4.8-12.75-7.15-24.43-7.15-14.98 0-26.2 2.52-33.72 7.64-5.84 4.06-10.53 11.54-14.14 22.59zm79.29 50.7c-12.6 4.79-25.74 9.02-39.49 12.76-18.59 5.28-30.42 10.48-35.34 15.6-5.14 5.28-7.68 11.3-7.68 18.04 0 7.72 2.54 14.06 7.52 18.93 5.07 4.88 12.45 7.31 22.2 7.31 10.22 0 19.74-2.69 28.58-7.96 8.76-5.28 14.98-11.7 18.67-19.34 3.69-7.64 5.53-17.55 5.53-29.74v-15.6zm322.68 21.45l87.12 10.24c-4.84 19.26-12.68 35.91-23.67 50.05-10.91 14.06-24.96 25.03-42.02 32.83-16.98 7.8-38.64 11.7-64.92 11.7-25.43 0-46.56-2.52-63.46-7.47-16.82-5.04-31.35-13.16-43.56-24.38-12.14-11.13-21.67-24.3-28.58-39.41-6.91-15.11-10.37-35.1-10.37-60.05 0-26 4.22-47.7 12.6-65 6.14-12.76 14.6-24.13 25.28-34.2 10.68-10.08 21.59-17.63 32.88-22.51 17.91-7.8 40.8-11.7 68.69-11.7 39.1 0 68.83 7.39 89.35 22.1 20.51 14.79 34.88 36.32 43.17 64.68l-86.2 12.19c-2.69-10.81-7.61-18.93-14.75-24.46-7.15-5.44-16.75-8.21-28.81-8.21-15.14 0-27.43 5.77-36.88 17.23-9.37 11.54-14.06 28.93-14.06 52.33 0 20.8 4.69 36.56 13.98 47.37 9.3 10.81 21.13 16.17 35.57 16.17 11.99 0 22.13-3.25 30.27-9.67 8.22-6.5 14.29-16.42 18.36-29.82zm394.59-3.41h-183.92c1.69 15.52 5.61 27.14 11.98 34.78 8.83 10.97 20.43 16.41 34.72 16.41 9.07 0 17.67-2.36 25.74-7.07 5-3.01 10.37-8.29 16.06-15.85l90.35 8.78c-13.83 25.35-30.5 43.63-50.02 54.6-19.51 11.05-47.56 16.57-84.05 16.57-31.73 0-56.62-4.71-74.83-14.22-18.13-9.43-33.19-24.46-45.18-45.02-11.91-20.64-17.9-44.85-17.9-72.64 0-39.57 11.98-71.67 35.95-96.13 23.89-24.46 57.01-36.72 99.19-36.72 34.26 0 61.23 5.52 81.06 16.49 19.82 10.97 34.95 26.81 45.33 47.7 10.37 20.8 15.52 47.94 15.52 81.34v10.96zm-93.12-46.31c-1.77-18.85-6.61-32.34-14.37-40.47-7.76-8.12-17.9-12.19-30.58-12.19-14.6 0-26.28 6.17-35.03 18.44-5.53 7.64-9.06 19.01-10.6 34.21h90.58zM59.69 932.75c10.35 38.87 30.91 73.71 58.6 101.4 40.78 40.78 97.05 66.11 158.92 66.11h2778.92c2.47 0 4.92-.04 7.37-.13l15.33-1.03c52.81-5.36 100.45-29.24 136.19-64.98 27.68-27.68 48.24-62.48 58.6-101.33V277.23c0-59.56-24.55-114-64.08-153.53-39.43-39.43-93.74-64-153.44-64H277.22c-59.8 0-114.18 24.48-153.61 63.92-39.44 39.43-63.92 93.81-63.92 153.61v655.52z"/></svg>